<svg width="37" height="36" viewBox="0 0 37 36" fill="none" xmlns="http://www.w3.org/2000/svg">
<path d="M23.7496 8.25101L27.9923 12.4937M20 31.5H32M5 31.5006L5.07118 31.0024C5.32304 29.2393 5.44897 28.3578 5.73543 27.5348C5.98962 26.8045 6.33687 26.11 6.76859 25.4685C7.25512 24.7455 7.88479 24.1159 9.14411 22.8565L26.6161 5.38454C27.7877 4.21297 29.6872 4.21296 30.8587 5.38454C32.0303 6.55611 32.0303 8.45561 30.8587 9.62718L13.0662 27.4198C11.9237 28.5622 11.3525 29.1335 10.7018 29.5877C10.1243 29.991 9.50139 30.325 8.84597 30.583C8.10756 30.8736 7.31563 31.0334 5.73189 31.353L5 31.5006Z" stroke="#131A29" stroke-width="2" stroke-linecap="round" stroke-linejoin="round"/>
</svg>
